<svg width="1200" height="630" viewBox="0 0 1200 630" fill="none" xmlns="http://www.w3.org/2000/svg">
  <rect width="1200" height="630" fill="#F3F6FB"/>
  <rect x="72" y="72" width="1056" height="486" rx="36" fill="#FFFFFF" stroke="#BDCDD6" stroke-width="2"/>
  <rect x="122" y="142" width="220" height="220" rx="48" fill="#00796B"/>
  <path d="M181 205H244C267.748 205 287 224.252 287 248C287 271.748 267.748 291 244 291H187" stroke="white" stroke-width="20" stroke-linecap="round"/>
  <path d="M181 205L227 251L181 297" stroke="white" stroke-width="20" stroke-linecap="round" stroke-linejoin="round"/>
  <circle cx="181" cy="205" r="23" fill="#00796B" stroke="white" stroke-width="12"/>
  <circle cx="287" cy="248" r="23" fill="#00796B" stroke="white" stroke-width="12"/>
  <circle cx="181" cy="297" r="23" fill="#00796B" stroke="#F59E0B" stroke-width="12"/>
  <path d="M286 160L318 130" stroke="#38BDF8" stroke-width="14" stroke-linecap="round"/>
  <circle cx="326" cy="122" r="12" fill="#38BDF8"/>
  <text x="410" y="228" fill="#0F172A" font-family="Avenir Next, Avenir, Helvetica, Arial, sans-serif" font-size="76" font-weight="800">RouteLab Group 1</text>
  <text x="414" y="292" fill="#475569" font-family="SFMono-Regular, Menlo, Consolas, monospace" font-size="30" font-weight="700">Greedy vs Branch and Bound route optimizer</text>
  <text x="414" y="354" fill="#00796B" font-family="Avenir Next, Avenir, Helvetica, Arial, sans-serif" font-size="28" font-weight="700">maps.hailamdev.space</text>
  <path d="M414 414H654" stroke="#00796B" stroke-width="10" stroke-linecap="round"/>
  <path d="M676 414H774" stroke="#F59E0B" stroke-width="10" stroke-linecap="round"/>
  <path d="M796 414H894" stroke="#38BDF8" stroke-width="10" stroke-linecap="round"/>
  <rect x="904" y="336" width="144" height="54" rx="12" fill="#DFF5F0"/>
  <text x="930" y="371" fill="#00796B" font-family="SFMono-Regular, Menlo, Consolas, monospace" font-size="22" font-weight="800">LIVE</text>
</svg>
