<svg xmlns="http://www.w3.org/2000/svg" viewBox="0 0 512 512">
  <defs>
    <linearGradient id="bg" x1="0%" y1="0%" x2="100%" y2="100%">
      <stop offset="0%" style="stop-color:#0f172a;stop-opacity:1" />
      <stop offset="100%" style="stop-color:#1e293b;stop-opacity:1" />
    </linearGradient>
    <linearGradient id="line" x1="0%" y1="0%" x2="100%" y2="100%">
      <stop offset="0%" style="stop-color:#818cf8;stop-opacity:1" />
      <stop offset="100%" style="stop-color:#2dd4bf;stop-opacity:1" />
    </linearGradient>
  </defs>
  <rect width="512" height="512" rx="112" fill="url(#bg)" />
  <polygon points="256,90 410,200 350,400 162,400 102,200" fill="none" stroke="url(#line)" stroke-width="32" stroke-linejoin="round" />
  <polygon points="256,90 350,400 102,200 410,200 162,400" fill="none" stroke="#4f46e5" stroke-width="12" stroke-linejoin="round" opacity="0.6" />
  <circle cx="256" cy="90" r="36" fill="#818cf8" />
  <circle cx="256" cy="90" r="16" fill="#0f172a" />
  <circle cx="410" cy="200" r="36" fill="#2dd4bf" />
  <circle cx="410" cy="200" r="16" fill="#0f172a" />
  <circle cx="350" cy="400" r="36" fill="#2dd4bf" />
  <circle cx="350" cy="400" r="16" fill="#0f172a" />
  <circle cx="162" cy="400" r="36" fill="#818cf8" />
  <circle cx="162" cy="400" r="16" fill="#0f172a" />
  <circle cx="102" cy="200" r="36" fill="#818cf8" />
  <circle cx="102" cy="200" r="16" fill="#0f172a" />
</svg>